<?xml version="1.0" encoding="utf-8"?>
<!-- Generator: Adobe Illustrator 26.0.3, SVG Export Plug-In . SVG Version: 6.00 Build 0)  -->
<svg version="1.1" id="Layer_1" xmlns="http://www.w3.org/2000/svg" xmlns:xlink="http://www.w3.org/1999/xlink" x="0px" y="0px"
	 viewBox="0 0 192 192" style="enable-background:new 0 0 192 192;" xml:space="preserve">
<style type="text/css">
	.st0{fill:#FAAC44;}
	.st1{fill:#1B1C1C;}
</style>
<g>
	<path class="st0" d="M34.6,0.6h-21C5.9,0.6-0.3,6.9-0.3,14.5v89.1h16.6V79.4h18.4c13.4,0,24.2-10.9,24.2-24.2V24.7
		C58.8,11.3,48,0.6,34.6,0.6z M42.3,58.7c0,5.3-4.3,4.2-9.6,4.2H16.2V21.8c0-2.5,2.1-4.6,4.6-4.6h11.8c5.3,0,9.6,4.3,9.6,9.7V58.7
		L42.3,58.7z"/>
	<path class="st0" d="M80.7,0.6c-7.7,0-13.9,6.3-13.9,13.9v89.1h16.6V79.3h26v24.5h16.4V0.8H80.7V0.6z M109.5,62.7H83.3V21.8
		c0-2.6,1.9-4.6,4.6-4.6h21.4v45.5H109.5z"/>
</g>
<path class="st1" d="M191.5,181v11.4H16c-8.8,0-16-6.9-16.5-15.6c0-0.3,0-0.7,0-1.1v-45.6c0-5.3,4.3-9.6,9.6-9.6h5l13.1,37
	l11.7-30.8c1.4-3.7,5-6.2,9-6.2h7.1v56.2H43.4v-34.4l-11.2,29.1h-6.1c-2.4,0-4.6-1.3-5.7-3.3L11,142.4v32.1c0,3.6,3,6.6,6.6,6.6
	L191.5,181L191.5,181z"/>
<path class="st1" d="M69.2,120.6c-5.3,0-9.6,4.3-9.6,9.6v46.6H71v-16.7h17.9v16.8h11.3v-56.3H69.2z M88.9,148.7H71v-13.6
	c0-1.8,1.3-3.2,3.2-3.2h14.7V148.7z"/>
<path class="st1" d="M134.4,159.6c6.9-2,11.9-8.4,11.9-16v-6.4c0-9.2-7.5-16.5-16.6-16.5h-14.4c-5.3,0-9.6,4.3-9.6,9.6v46.6h11.4
	v-16.7h2.2l10.8,13.2c1.8,2.2,4.6,3.5,7.4,3.5h10.4L134.4,159.6L134.4,159.6z M128.4,148.8h-11.3v-13.7c0-1.7,1.4-3.2,3.2-3.2h8.1
	c3.6,0,6.7,3,6.7,6.7v3.5C135,145.9,132,148.8,128.4,148.8z"/>
<path class="st1" d="M165,132.1h26.4v-11.4h-30.9c-5.3,0-9.6,4.3-9.6,9.6v10c0,3.8,2.3,7.2,5.7,8.8l21.6,9.5
	c1.1,0.5,1.9,1.6,1.9,2.9v1.3c0,1.7-1.1,2.8-2.9,2.8l-26.4,0.1v11.3h30.9c5.3,0,9.6-4.3,9.6-9.6v-9.3c0-3.8-2.2-7.2-5.6-8.8
	l-21.7-9.6c-1.1-0.5-1.8-1.6-1.8-2.9v-2.1C162.3,133.2,163.3,132.1,165,132.1z"/>
<path class="st0" d="M190.8,101c-0.4,0.4-1.1,0.6-2.1,0.8c-1,0.3-2.5,0.5-4.3,0.8c-1.9,0.2-3.9,0.4-6.1,0.6
	c-2.2,0.2-4.4,0.3-6.7,0.4c-2.3,0.1-4.3,0.1-6.2,0.1c-4.5,0-8.7-0.4-12.5-1.1c-3.8-0.7-7.2-2.1-10-4.2c-2.8-2.1-5.1-4.9-6.7-8.6
	c-1.6-3.7-2.5-8.4-2.5-14.3V3.4c0-0.7,0.3-1.4,0.8-1.9c0.5-0.5,1.2-0.8,1.9-0.8h13.6c0.7,0,1.4,0.3,1.9,0.8c0.5,0.5,0.8,1.2,0.8,1.9
	v72.2c0,4.6,0.8,7.7,2.3,9.3c1.6,1.6,4.3,2.5,8.4,2.5h25.3c0.7,0,1.4,0.3,1.9,0.8c0.5,0.5,0.8,1.2,0.8,1.9v8.8
	C191.4,100,191.2,100.6,190.8,101z"/>
</svg>
